#N canvas 2122 1148 398 160 12;
#X obj 28 44 oscparse;
#X obj 28 20 netreceive -u -b 7539;
#X obj 28 68 print;
#X floatatom 93 43 5 0 0 0 - - -;
#X connect 0 0 2 0;
#X connect 1 0 0 0;
#X connect 1 0 3 0;
